<svg width="512" height="512" xmlns="http://www.w3.org/2000/svg">
 <!-- Created with Method Draw - http://github.com/duopixel/Method-Draw/ -->

 <g>
  <title>background</title>
  <g display="none" overflow="visible" y="0" x="0" height="100%" width="100%" id="canvasGrid">
   <rect fill="url(#gridpattern)" stroke-width="0" y="0" x="0" height="100%" width="100%"/>
  </g>
 </g>
 <g>
  <title>Layer 1</title>
  <style transform="matrix(0.025081671460185584,0,0,0.025081671460185584,0,0) " type="text/css">.st0{fill:#D75237;}</style>
  <style transform="matrix(0.025081671460185584,0,0,0.025081671460185584,0,0) " type="text/css">.st0{fill:#D75237;}</style>
  <g stroke="null" id="svg_12">
   <path fill="#ffffff" stroke="#ffffff" id="svg_11" d="m337.586935,137.778398c0.711567,-7.471452 -0.355783,-14.231336 -3.557834,-20.635438l-13.519769,-26.327971c-2.1347,2.490484 -44.117141,55.146427 -67.243062,83.609099c-9.250369,11.385069 -23.125921,14.942903 -32.732073,16.010253c-36.289907,3.557834 -105.66767,9.250368 -105.66767,9.250368l12.452419,24.193271c4.269401,8.183019 11.740852,14.231336 21.347004,17.78917c-12.096635,24.549055 -18.85652,52.30016 -18.85652,81.474399c0,102.821402 83.609099,186.430501 186.430501,186.430501c102.821403,0 186.430502,-83.609099 186.430502,-186.430501c0,-95.705735 -72.579814,-174.689649 -165.083498,-185.363151zm-21.702787,358.273883c-95.349951,0 -172.910732,-77.560781 -172.910732,-172.910732c0,-28.106889 6.759884,-54.43486 18.500737,-77.916565c4.625184,0.711567 9.606151,1.067351 14.587119,1.067351c23.125921,0 51.588593,-7.471452 80.051265,-22.058571l1.778917,-0.711567c0.355783,0 0.355783,0 0.711567,-0.355783c38.424607,-19.923871 65.464145,-46.963409 75.070297,-71.868247c86.81115,8.894585 154.765779,82.541749 154.765779,171.843382c0.355783,95.349951 -77.204998,172.910732 -172.554949,172.910732zm143.38071,-149.073244c-2.1347,5.692534 -6.759885,14.587119 -11.029285,19.92387l-32.020506,42.694008c-3.913618,5.336751 -12.808203,9.606152 -19.212304,9.606152l-13.163986,0c-6.759884,0 -15.654469,-3.913618 -20.279653,-8.894585l-2.846268,-3.202051c-4.625184,-4.980967 -8.183018,-11.740852 -7.827234,-15.298686c0,-3.557834 -2.846268,-4.625184 -6.759885,-2.846267c-3.913617,1.778917 -11.029285,-0.355784 -15.65447,-4.980968l-1.778917,-1.778917c-4.625184,-4.625184 -13.875552,-7.471451 -20.635437,-6.759884l-25.616405,3.913617c-6.404101,1.06735 -17.077603,3.913617 -23.125921,6.048318l-17.789169,6.759884c-6.048318,2.490484 -16.366037,2.490484 -22.414355,0l-1.778917,-0.711566c-6.048317,-2.490484 -11.385068,-9.961936 -11.385068,-16.366037l0,-10.673502c0,-6.759884 -1.778917,-17.077603 -3.913618,-23.481704l-3.913617,-11.029286c-2.134701,-6.404101 0,-14.942902 4.625184,-19.568087l8.894585,-8.183018c4.980968,-4.625184 13.875553,-9.961935 20.279654,-11.740852l13.875552,-4.269401c6.404101,-1.778917 15.298686,-7.471451 19.568087,-12.452419l3.202051,-3.557834c4.625184,-4.980967 8.894585,-11.029285 9.606152,-13.875552c0.711566,-2.846267 6.404101,-6.404101 12.452419,-7.827235c6.048317,-1.423134 13.163985,-0.355783 16.366036,2.846267c3.202051,3.202051 8.538802,1.06735 12.096636,-4.625184l2.846267,-4.269401c3.557834,-5.692534 8.894585,-12.452419 11.740852,-15.298686c2.846267,-2.846267 10.317719,-3.557834 16.72182,-1.423134l12.096635,3.913618c6.404102,2.1347 8.894585,7.827235 6.048318,12.808202c-3.20205,4.980968 -1.06735,12.096636 4.269401,16.010253l15.65447,10.673502c5.336751,3.557834 11.740852,1.423134 13.519769,-4.625184l10.673502,-34.155206c2.1347,-6.404102 5.336751,-6.404102 7.471451,0l15.298686,45.184491c2.134701,6.404102 7.115668,15.65447 11.385069,20.991221l1.423134,1.423134c4.2694,5.33675 8.894585,14.587119 10.317718,20.99122l1.423134,5.336751c1.778917,7.115668 1.423133,17.077603 -0.711567,22.770138zm-62.262095,98.196218c-4.980967,8.183018 -12.808202,14.942903 -17.077603,14.942903c-4.269401,0 -9.961935,-2.490484 -12.096636,-5.692535c-2.1347,-3.20205 -2.846267,-10.317718 -1.06735,-16.010253c1.778917,-5.692534 7.115668,-9.250368 12.096636,-7.471451c4.980967,1.778917 13.163986,2.1347 18.144953,1.06735c4.980968,-1.06735 4.980968,4.980968 0,13.163986zm-34.155206,-436.546231c-2.846267,-5.692535 -9.250369,-9.250369 -15.65447,-8.538802l-183.940017,16.010253c-9.961936,0.711567 -19.212304,5.336751 -24.549055,11.385069l-121.322139,144.44806c-3.557834,4.269401 -4.269401,10.317719 -1.423134,15.65447c2.846267,5.336751 8.183018,8.538801 14.231336,8.538801c0.355784,0 1.06735,0 1.423134,0l37.357257,-3.557834l3.20205,-0.355783l-8.538801,62.973662l-5.692535,43.049791c0,0 0,0.355783 0,0.355783c0,0 0,0 0,0c0,0 0,0 0,0c-3.557834,36.64569 -20.279653,66.531496 -43.761358,77.560781c-2.1347,1.067351 -3.557834,2.846268 -3.913617,5.336751c-0.355784,2.134701 0.711567,4.625185 2.490484,6.048318l30.241588,26.327972c1.423134,1.06735 2.846268,1.778917 4.625185,1.778917c1.423133,0 2.846267,-0.355784 4.2694,-1.423134c27.751106,-22.058571 25.260622,-44.472925 22.058571,-70.445113c-1.423133,-12.452419 -3.20205,-27.039538 -1.778917,-43.049791c0,-0.355784 0,-0.355784 0,-0.711567l14.58712,-109.225504c0,0 123.812623,-9.250368 132.707208,-10.673502c9.250368,-1.423133 18.500737,-6.404101 24.549054,-11.385069c6.048318,-4.980967 78.628132,-97.840434 78.628132,-97.840434c0,0 0,0 0,0l39.136174,-46.607626c3.20205,-4.269401 3.913617,-10.317718 1.06735,-15.654469zm-172.910732,89.657416l-105.311887,79.695482c-1.06735,0.711567 -2.490484,1.423133 -3.913617,1.423133c-1.778917,0 -3.913618,-0.711566 -4.980968,-2.490483c-1.06735,-1.423134 -1.423133,-3.202051 -1.06735,-4.980968c0.355783,-1.423134 1.06735,-2.846267 2.490484,-3.913617l105.311886,-79.695482c2.846267,-2.1347 6.759885,-1.423133 8.894585,1.06735c1.06735,1.067351 1.423134,2.846268 1.06735,4.269401c0,1.778917 -1.06735,3.557834 -2.490483,4.625184zm1.06735,-8.538801c1.06735,1.06735 1.423133,2.846267 1.06735,4.269401c-0.355783,-1.067351 -0.711567,-2.134701 -1.423134,-2.846268c-2.490483,-2.846267 -6.759884,-3.557834 -9.606151,-1.423133l-106.73502,82.185965c0.355783,-1.423134 1.06735,-2.846267 2.490483,-3.913617l105.311887,-79.695482c3.20205,-2.1347 7.115668,-1.423133 8.894585,1.423134z" class="st0"/>
  </g>
 </g>
</svg>