<svg version="1.1" id="Layer_1" xmlns="http://www.w3.org/2000/svg" xmlns:xlink="http://www.w3.org/1999/xlink" x="0px" y="0px"
	 viewBox="0 0 841.9 595.3" style="enable-background:new 0 0 841.9 595.3;" xml:space="preserve">
<style type="text/css">
	.st0{fill:#D75237;}
</style>
<path class="st0" d="M415.3,242.7c0.2-2.1-0.1-4-1-5.8l-3.8-7.4c-0.6,0.7-12.4,15.5-18.9,23.5c-2.6,3.2-6.5,4.2-9.2,4.5
	c-10.2,1-29.7,2.6-29.7,2.6l3.5,6.8c1.2,2.3,3.3,4,6,5c-3.4,6.9-5.3,14.7-5.3,22.9c0,28.9,23.5,52.4,52.4,52.4
	c28.9,0,52.4-23.5,52.4-52.4C461.7,267.9,441.3,245.7,415.3,242.7z M409.2,343.4c-26.8,0-48.6-21.8-48.6-48.6
	c0-7.9,1.9-15.3,5.2-21.9c1.3,0.2,2.7,0.3,4.1,0.3c6.5,0,14.5-2.1,22.5-6.2l0.5-0.2c0.1,0,0.1,0,0.2-0.1
	c10.8-5.6,18.4-13.2,21.1-20.2c24.4,2.5,43.5,23.2,43.5,48.3C457.8,321.6,436,343.4,409.2,343.4z M449.5,301.5
	c-0.6,1.6-1.9,4.1-3.1,5.6l-9,12c-1.1,1.5-3.6,2.7-5.4,2.7h-3.7c-1.9,0-4.4-1.1-5.7-2.5l-0.8-0.9c-1.3-1.4-2.3-3.3-2.2-4.3
	c0-1-0.8-1.3-1.9-0.8c-1.1,0.5-3.1-0.1-4.4-1.4l-0.5-0.5c-1.3-1.3-3.9-2.1-5.8-1.9l-7.2,1.1c-1.8,0.3-4.8,1.1-6.5,1.7l-5,1.9
	c-1.7,0.7-4.6,0.7-6.3,0l-0.5-0.2c-1.7-0.7-3.2-2.8-3.2-4.6v-3c0-1.9-0.5-4.8-1.1-6.6l-1.1-3.1c-0.6-1.8,0-4.2,1.3-5.5l2.5-2.3
	c1.4-1.3,3.9-2.8,5.7-3.3l3.9-1.2c1.8-0.5,4.3-2.1,5.5-3.5l0.9-1c1.3-1.4,2.5-3.1,2.7-3.9c0.2-0.8,1.8-1.8,3.5-2.2
	c1.7-0.4,3.7-0.1,4.6,0.8c0.9,0.9,2.4,0.3,3.4-1.3l0.8-1.2c1-1.6,2.5-3.5,3.3-4.3c0.8-0.8,2.9-1,4.7-0.4l3.4,1.1
	c1.8,0.6,2.5,2.2,1.7,3.6c-0.9,1.4-0.3,3.4,1.2,4.5l4.4,3c1.5,1,3.3,0.4,3.8-1.3l3-9.6c0.6-1.8,1.5-1.8,2.1,0l4.3,12.7
	c0.6,1.8,2,4.4,3.2,5.9l0.4,0.4c1.2,1.5,2.5,4.1,2.9,5.9l0.4,1.5C450.2,297.1,450.1,299.9,449.5,301.5z M432,329.1
	c-1.4,2.3-3.6,4.2-4.8,4.2c-1.2,0-2.8-0.7-3.4-1.6c-0.6-0.9-0.8-2.9-0.3-4.5c0.5-1.6,2-2.6,3.4-2.1c1.4,0.5,3.7,0.6,5.1,0.3
	C433.4,325.1,433.4,326.8,432,329.1z M422.4,206.4c-0.8-1.6-2.6-2.6-4.4-2.4l-51.7,4.5c-2.8,0.2-5.4,1.5-6.9,3.2l-34.1,40.6
	c-1,1.2-1.2,2.9-0.4,4.4c0.8,1.5,2.3,2.4,4,2.4c0.1,0,0.3,0,0.4,0l10.5-1l0.9-0.1l-2.4,17.7l-1.6,12.1c0,0,0,0.1,0,0.1c0,0,0,0,0,0
	c0,0,0,0,0,0c-1,10.3-5.7,18.7-12.3,21.8c-0.6,0.3-1,0.8-1.1,1.5c-0.1,0.6,0.2,1.3,0.7,1.7l8.5,7.4c0.4,0.3,0.8,0.5,1.3,0.5
	c0.4,0,0.8-0.1,1.2-0.4c7.8-6.2,7.1-12.5,6.2-19.8c-0.4-3.5-0.9-7.6-0.5-12.1c0-0.1,0-0.1,0-0.2l4.1-30.7c0,0,34.8-2.6,37.3-3
	c2.6-0.4,5.2-1.8,6.9-3.2c1.7-1.4,22.1-27.5,22.1-27.5c0,0,0,0,0,0l11-13.1C423,209.6,423.2,207.9,422.4,206.4z M373.8,231.6
	L344.2,254c-0.3,0.2-0.7,0.4-1.1,0.4c-0.5,0-1.1-0.2-1.4-0.7c-0.3-0.4-0.4-0.9-0.3-1.4c0.1-0.4,0.3-0.8,0.7-1.1l29.6-22.4
	c0.8-0.6,1.9-0.4,2.5,0.3c0.3,0.3,0.4,0.8,0.3,1.2C374.5,230.8,374.2,231.3,373.8,231.6z M374.1,229.2c0.3,0.3,0.4,0.8,0.3,1.2
	c-0.1-0.3-0.2-0.6-0.4-0.8c-0.7-0.8-1.9-1-2.7-0.4l-30,23.1c0.1-0.4,0.3-0.8,0.7-1.1l29.6-22.4C372.5,228.2,373.6,228.4,374.1,229.2
	z"/>
</svg>
